{
	"asset":{
		"generator":"Khronos glTF Blender I/O v3.6.27",
		"version":"2.0"
	},
	"scene":0,
	"scenes":[
		{
			"name":"Scene",
			"nodes":[
				0
			]
		}
	],
	"nodes":[
		{
			"mesh":0,
			"name":"Cube.002"
		}
	],
	"materials":[
		{
			"doubleSided":true,
			"name":"Material.002",
			"pbrMetallicRoughness":{
				"baseColorFactor":[
					0.0014873541658744216,
					0.26295721530914307,
					0.8000000715255737,
					1
				],
				"metallicFactor":0,
				"roughnessFactor":0.5
			}
		},
		{
			"doubleSided":true,
			"name":"Material.003",
			"pbrMetallicRoughness":{
				"baseColorFactor":[
					0.800000011920929,
					0.800000011920929,
					0.800000011920929,
					1
				],
				"metallicFactor":0,
				"roughnessFactor":0.5
			}
		},
		{
			"doubleSided":true,
			"name":"Material.004",
			"pbrMetallicRoughness":{
				"baseColorFactor":[
					0.05221765860915184,
					0.05221765860915184,
					0.05221765860915184,
					1
				],
				"metallicFactor":0,
				"roughnessFactor":0.5
			}
		}
	],
	"meshes":[
		{
			"name":"Cube.006",
			"primitives":[
				{
					"attributes":{
						"POSITION":0,
						"NORMAL":1,
						"TEXCOORD_0":2
					},
					"indices":3,
					"material":0
				},
				{
					"attributes":{
						"POSITION":4,
						"NORMAL":5,
						"TEXCOORD_0":6
					},
					"indices":7,
					"material":1
				},
				{
					"attributes":{
						"POSITION":8,
						"NORMAL":9,
						"TEXCOORD_0":10
					},
					"indices":11,
					"material":2
				}
			]
		}
	],
	"accessors":[
		{
			"bufferView":0,
			"componentType":5126,
			"count":915,
			"max":[
				0.2931983470916748,
				0.5309964418411255,
				0.14923827350139618
			],
			"min":[
				-0.2931983470916748,
				0.00016242265701293945,
				-0.14973343908786774
			],
			"type":"VEC3"
		},
		{
			"bufferView":1,
			"componentType":5126,
			"count":915,
			"type":"VEC3"
		},
		{
			"bufferView":2,
			"componentType":5126,
			"count":915,
			"type":"VEC2"
		},
		{
			"bufferView":3,
			"componentType":5123,
			"count":5280,
			"type":"SCALAR"
		},
		{
			"bufferView":4,
			"componentType":5126,
			"count":396,
			"max":[
				0.16532625257968903,
				0.4224822521209717,
				0.15284711122512817
			],
			"min":[
				-0.16532625257968903,
				0.3217490613460541,
				0.12130177021026611
			],
			"type":"VEC3"
		},
		{
			"bufferView":5,
			"componentType":5126,
			"count":396,
			"type":"VEC3"
		},
		{
			"bufferView":6,
			"componentType":5126,
			"count":396,
			"type":"VEC2"
		},
		{
			"bufferView":7,
			"componentType":5123,
			"count":1920,
			"type":"SCALAR"
		},
		{
			"bufferView":8,
			"componentType":5126,
			"count":460,
			"max":[
				0.1481952667236328,
				0.40450868010520935,
				0.1517999768257141
			],
			"min":[
				-0.1481952667236328,
				0.339722603559494,
				0.13585034012794495
			],
			"type":"VEC3"
		},
		{
			"bufferView":9,
			"componentType":5126,
			"count":460,
			"type":"VEC3"
		},
		{
			"bufferView":10,
			"componentType":5126,
			"count":460,
			"type":"VEC2"
		},
		{
			"bufferView":11,
			"componentType":5123,
			"count":2112,
			"type":"SCALAR"
		}
	],
	"bufferViews":[
		{
			"buffer":0,
			"byteLength":10980,
			"byteOffset":0,
			"target":34962
		},
		{
			"buffer":0,
			"byteLength":10980,
			"byteOffset":10980,
			"target":34962
		},
		{
			"buffer":0,
			"byteLength":7320,
			"byteOffset":21960,
			"target":34962
		},
		{
			"buffer":0,
			"byteLength":10560,
			"byteOffset":29280,
			"target":34963
		},
		{
			"buffer":0,
			"byteLength":4752,
			"byteOffset":39840,
			"target":34962
		},
		{
			"buffer":0,
			"byteLength":4752,
			"byteOffset":44592,
			"target":34962
		},
		{
			"buffer":0,
			"byteLength":3168,
			"byteOffset":49344,
			"target":34962
		},
		{
			"buffer":0,
			"byteLength":3840,
			"byteOffset":52512,
			"target":34963
		},
		{
			"buffer":0,
			"byteLength":5520,
			"byteOffset":56352,
			"target":34962
		},
		{
			"buffer":0,
			"byteLength":5520,
			"byteOffset":61872,
			"target":34962
		},
		{
			"buffer":0,
			"byteLength":3680,
			"byteOffset":67392,
			"target":34962
		},
		{
			"buffer":0,
			"byteLength":4224,
			"byteOffset":71072,
			"target":34963
		}
	],
	"buffers":[
		{
			"byteLength":75296,
			"uri":"data:application/octet-stream;base64,"
		}
	]
}
