{
	"asset":{
		"generator":"Khronos glTF Blender I/O v3.6.27",
		"version":"2.0"
	},
	"scene":0,
	"scenes":[
		{
			"name":"Scene",
			"nodes":[
				0
			]
		}
	],
	"nodes":[
		{
			"mesh":0,
			"name":"Plane.002"
		}
	],
	"materials":[
		{
			"doubleSided":true,
			"name":"Material.005",
			"pbrMetallicRoughness":{
				"baseColorFactor":[
					0.8000000715255737,
					0.09422909468412399,
					0.049545519053936005,
					1
				],
				"metallicFactor":0,
				"roughnessFactor":0.5
			}
		},
		{
			"doubleSided":true,
			"name":"Material.006",
			"pbrMetallicRoughness":{
				"baseColorFactor":[
					0.037409812211990356,
					0.037409812211990356,
					0.037409812211990356,
					1
				],
				"metallicFactor":0,
				"roughnessFactor":0.5
			}
		},
		{
			"doubleSided":true,
			"name":"Material.007",
			"pbrMetallicRoughness":{
				"baseColorFactor":[
					0.8000000715255737,
					0.30678725242614746,
					0.032827846705913544,
					1
				],
				"metallicFactor":0,
				"roughnessFactor":0.5
			}
		},
		{
			"doubleSided":true,
			"name":"Material.008",
			"pbrMetallicRoughness":{
				"baseColorFactor":[
					0.800000011920929,
					0.800000011920929,
					0.800000011920929,
					1
				],
				"metallicFactor":0,
				"roughnessFactor":0.5
			}
		}
	],
	"meshes":[
		{
			"name":"Plane.002",
			"primitives":[
				{
					"attributes":{
						"POSITION":0,
						"NORMAL":1,
						"TEXCOORD_0":2
					},
					"indices":3,
					"material":0
				},
				{
					"attributes":{
						"POSITION":4,
						"NORMAL":5,
						"TEXCOORD_0":6
					},
					"indices":7,
					"material":1
				},
				{
					"attributes":{
						"POSITION":8,
						"NORMAL":9,
						"TEXCOORD_0":10
					},
					"indices":11,
					"material":2
				},
				{
					"attributes":{
						"POSITION":12,
						"NORMAL":13,
						"TEXCOORD_0":14
					},
					"indices":15,
					"material":3
				}
			]
		}
	],
	"accessors":[
		{
			"bufferView":0,
			"componentType":5126,
			"count":1946,
			"max":[
				0.20737440884113312,
				0.5653271675109863,
				0.1245996505022049
			],
			"min":[
				-0.20737440884113312,
				0.04537779465317726,
				-0.34258219599723816
			],
			"type":"VEC3"
		},
		{
			"bufferView":1,
			"componentType":5126,
			"count":1946,
			"type":"VEC3"
		},
		{
			"bufferView":2,
			"componentType":5126,
			"count":1946,
			"type":"VEC2"
		},
		{
			"bufferView":3,
			"componentType":5123,
			"count":11136,
			"type":"SCALAR"
		},
		{
			"bufferView":4,
			"componentType":5126,
			"count":762,
			"max":[
				0.1265387386083603,
				0.44471317529678345,
				0.1337856501340866
			],
			"min":[
				-0.12653876841068268,
				0.00031103892251849174,
				-0.021779095754027367
			],
			"type":"VEC3"
		},
		{
			"bufferView":5,
			"componentType":5126,
			"count":762,
			"type":"VEC3"
		},
		{
			"bufferView":6,
			"componentType":5126,
			"count":762,
			"type":"VEC2"
		},
		{
			"bufferView":7,
			"componentType":5123,
			"count":3600,
			"type":"SCALAR"
		},
		{
			"bufferView":8,
			"componentType":5126,
			"count":676,
			"max":[
				0.04510036110877991,
				0.36772140860557556,
				0.18306268751621246
			],
			"min":[
				-0.045100241899490356,
				0.2915693521499634,
				0.11010205000638962
			],
			"type":"VEC3"
		},
		{
			"bufferView":9,
			"componentType":5126,
			"count":676,
			"type":"VEC3"
		},
		{
			"bufferView":10,
			"componentType":5126,
			"count":676,
			"type":"VEC2"
		},
		{
			"bufferView":11,
			"componentType":5123,
			"count":3672,
			"type":"SCALAR"
		},
		{
			"bufferView":12,
			"componentType":5126,
			"count":528,
			"max":[
				0.11500082910060883,
				0.41274863481521606,
				0.13027186691761017
			],
			"min":[
				-0.11500082910060883,
				0.3250075876712799,
				0.08206112682819366
			],
			"type":"VEC3"
		},
		{
			"bufferView":13,
			"componentType":5126,
			"count":528,
			"type":"VEC3"
		},
		{
			"bufferView":14,
			"componentType":5126,
			"count":528,
			"type":"VEC2"
		},
		{
			"bufferView":15,
			"componentType":5123,
			"count":2688,
			"type":"SCALAR"
		}
	],
	"bufferViews":[
		{
			"buffer":0,
			"byteLength":23352,
			"byteOffset":0,
			"target":34962
		},
		{
			"buffer":0,
			"byteLength":23352,
			"byteOffset":23352,
			"target":34962
		},
		{
			"buffer":0,
			"byteLength":15568,
			"byteOffset":46704,
			"target":34962
		},
		{
			"buffer":0,
			"byteLength":22272,
			"byteOffset":62272,
			"target":34963
		},
		{
			"buffer":0,
			"byteLength":9144,
			"byteOffset":84544,
			"target":34962
		},
		{
			"buffer":0,
			"byteLength":9144,
			"byteOffset":93688,
			"target":34962
		},
		{
			"buffer":0,
			"byteLength":6096,
			"byteOffset":102832,
			"target":34962
		},
		{
			"buffer":0,
			"byteLength":7200,
			"byteOffset":108928,
			"target":34963
		},
		{
			"buffer":0,
			"byteLength":8112,
			"byteOffset":116128,
			"target":34962
		},
		{
			"buffer":0,
			"byteLength":8112,
			"byteOffset":124240,
			"target":34962
		},
		{
			"buffer":0,
			"byteLength":5408,
			"byteOffset":132352,
			"target":34962
		},
		{
			"buffer":0,
			"byteLength":7344,
			"byteOffset":137760,
			"target":34963
		},
		{
			"buffer":0,
			"byteLength":6336,
			"byteOffset":145104,
			"target":34962
		},
		{
			"buffer":0,
			"byteLength":6336,
			"byteOffset":151440,
			"target":34962
		},
		{
			"buffer":0,
			"byteLength":4224,
			"byteOffset":157776,
			"target":34962
		},
		{
			"buffer":0,
			"byteLength":5376,
			"byteOffset":162000,
			"target":34963
		}
	],
	"buffers":[
		{
			"byteLength":167376,
			"uri":"data:application/octet-stream;base64,"
		}
	]
}
